<svg width="186" height="34" viewBox="0 0 186 34" fill="none" xmlns="http://www.w3.org/2000/svg">
<path d="M1.59998 6H25.84" stroke="#09090B" stroke-width="3" stroke-linecap="round"/>
<path d="M1.5 18H35.84" stroke="#09090B" stroke-width="3" stroke-linecap="round"/>
<path d="M1.59998 30H25.84" stroke="#09090B" stroke-width="3" stroke-linecap="round"/>
<path d="M35.9399 18H48.0599" stroke="url(#paint0_linear_81_10)" stroke-width="3" stroke-linecap="round"/>
<path d="M42 11L49.07 18L42 25" stroke="url(#paint1_linear_81_10)" stroke-width="3" stroke-linecap="round" stroke-linejoin="round"/>
<path d="M72.7543 6.63636V27H70.4077V6.63636H72.7543ZM83.4557 27.3182C81.9841 27.3182 80.7147 26.9934 79.6474 26.3438C78.5868 25.6875 77.7682 24.7727 77.1915 23.5994C76.6214 22.4195 76.3364 21.0473 76.3364 19.483C76.3364 17.9186 76.6214 16.5398 77.1915 15.3466C77.7682 14.1468 78.5703 13.2121 79.5977 12.5426C80.6318 11.8665 81.8383 11.5284 83.217 11.5284C84.0125 11.5284 84.798 11.661 85.5736 11.9261C86.3491 12.1913 87.0551 12.6222 87.6915 13.2188C88.3278 13.8087 88.8349 14.5909 89.2128 15.5653C89.5906 16.5398 89.7795 17.7396 89.7795 19.1648V20.1591H78.0068V18.1307H87.3932C87.3932 17.2689 87.2208 16.5 86.8761 15.8239C86.5381 15.1477 86.0542 14.6141 85.4244 14.223C84.8013 13.8319 84.0655 13.6364 83.217 13.6364C82.2824 13.6364 81.4737 13.8684 80.7909 14.3324C80.1148 14.7898 79.5944 15.3864 79.2298 16.1222C78.8652 16.858 78.683 17.6468 78.683 18.4886V19.8409C78.683 20.9943 78.8818 21.9721 79.2795 22.7741C79.6839 23.5696 80.244 24.1761 80.9599 24.5938C81.6758 25.0047 82.5078 25.2102 83.4557 25.2102C84.0722 25.2102 84.629 25.1241 85.1261 24.9517C85.6299 24.7727 86.0641 24.5076 86.4287 24.1562C86.7933 23.7983 87.075 23.3542 87.2739 22.8239L89.5409 23.4602C89.3023 24.2292 88.9012 24.9053 88.3378 25.4886C87.7743 26.0653 87.0783 26.5161 86.2497 26.8409C85.4211 27.1591 84.4898 27.3182 83.4557 27.3182ZM97.8435 27.358C96.8757 27.358 95.9973 27.1757 95.2085 26.8111C94.4197 26.4399 93.7933 25.9062 93.3293 25.2102C92.8652 24.5076 92.6332 23.6591 92.6332 22.6648C92.6332 21.7898 92.8056 21.0805 93.1503 20.5369C93.495 19.9867 93.9557 19.5559 94.5324 19.2443C95.1091 18.9328 95.7455 18.7008 96.4415 18.5483C97.1441 18.3892 97.8501 18.2633 98.5594 18.1705C99.4874 18.0511 100.24 17.9616 100.816 17.902C101.4 17.8357 101.824 17.7263 102.089 17.5739C102.361 17.4214 102.497 17.1562 102.497 16.7784V16.6989C102.497 15.7178 102.228 14.9555 101.691 14.4119C101.161 13.8684 100.356 13.5966 99.2753 13.5966C98.155 13.5966 97.2767 13.8419 96.6403 14.3324C96.004 14.8229 95.5565 15.3466 95.298 15.9034L93.0707 15.108C93.4685 14.1799 93.9988 13.4574 94.6616 12.9403C95.3312 12.4167 96.0603 12.0521 96.8491 11.8466C97.6446 11.6345 98.4268 11.5284 99.1957 11.5284C99.6863 11.5284 100.25 11.5881 100.886 11.7074C101.529 11.8201 102.149 12.0554 102.745 12.4134C103.349 12.7713 103.849 13.3116 104.247 14.0341C104.645 14.7566 104.843 15.7244 104.843 16.9375V27H102.497V24.9318H102.378C102.218 25.2633 101.953 25.6179 101.582 25.9957C101.211 26.3736 100.717 26.6951 100.101 26.9602C99.4841 27.2254 98.7317 27.358 97.8435 27.358ZM98.2014 25.25C99.1294 25.25 99.9116 25.0677 100.548 24.7031C101.191 24.3385 101.675 23.8679 102 23.2912C102.331 22.7145 102.497 22.108 102.497 21.4716V19.3239C102.397 19.4432 102.179 19.5526 101.841 19.652C101.509 19.7448 101.125 19.8277 100.687 19.9006C100.256 19.9669 99.8354 20.0265 99.4244 20.0795C99.0201 20.1259 98.6919 20.1657 98.4401 20.1989C97.8302 20.2784 97.2601 20.4077 96.7298 20.5866C96.2062 20.759 95.7819 21.0208 95.4571 21.3722C95.1389 21.7169 94.9798 22.1875 94.9798 22.7841C94.9798 23.5994 95.2814 24.2159 95.8847 24.6335C96.4945 25.0445 97.2668 25.25 98.2014 25.25ZM114.894 27.3182C113.621 27.3182 112.497 26.9967 111.523 26.3537C110.548 25.7041 109.786 24.7893 109.236 23.6094C108.686 22.4228 108.411 21.0208 108.411 19.4034C108.411 17.7992 108.686 16.4072 109.236 15.2273C109.786 14.0473 110.552 13.1359 111.533 12.4929C112.514 11.8499 113.647 11.5284 114.933 11.5284C115.928 11.5284 116.713 11.6941 117.29 12.0256C117.873 12.3504 118.317 12.7216 118.622 13.1392C118.934 13.5502 119.176 13.8883 119.348 14.1534H119.547V6.63636H121.894V27H119.626V24.6534H119.348C119.176 24.9318 118.93 25.2831 118.612 25.7074C118.294 26.125 117.84 26.4995 117.25 26.831C116.66 27.1558 115.875 27.3182 114.894 27.3182ZM115.212 25.2102C116.153 25.2102 116.948 24.965 117.598 24.4744C118.248 23.9773 118.742 23.2912 119.08 22.4162C119.418 21.5346 119.587 20.517 119.587 19.3636C119.587 18.2235 119.421 17.2259 119.09 16.3707C118.758 15.509 118.268 14.8395 117.618 14.3622C116.968 13.8783 116.166 13.6364 115.212 13.6364C114.217 13.6364 113.389 13.8916 112.726 14.402C112.07 14.9058 111.576 15.5919 111.244 16.4602C110.92 17.322 110.757 18.2898 110.757 19.3636C110.757 20.4508 110.923 21.4384 111.254 22.3267C111.592 23.2083 112.09 23.911 112.746 24.4347C113.409 24.9517 114.231 25.2102 115.212 25.2102Z" fill="#09090B"/>
<path d="M134.273 11.7273V14.9091H124.847V11.7273H134.273ZM127.004 27V10.6236C127.004 9.51657 127.22 8.59848 127.651 7.86932C128.088 7.14015 128.685 6.59328 129.44 6.22869C130.196 5.86411 131.055 5.68182 132.016 5.68182C132.665 5.68182 133.259 5.73153 133.796 5.83097C134.339 5.9304 134.743 6.01989 135.009 6.09943L134.253 9.28125C134.087 9.22822 133.882 9.1785 133.636 9.1321C133.398 9.0857 133.153 9.0625 132.901 9.0625C132.278 9.0625 131.843 9.20833 131.598 9.5C131.353 9.78504 131.23 10.1861 131.23 10.7031V27H127.004ZM141.096 6.63636V27H136.861V6.63636H141.096ZM151.39 27.2983C149.845 27.2983 148.51 26.9702 147.383 26.3139C146.263 25.651 145.398 24.7296 144.788 23.5497C144.178 22.3632 143.873 20.9877 143.873 19.4233C143.873 17.8456 144.178 16.4669 144.788 15.2869C145.398 14.1004 146.263 13.179 147.383 12.5227C148.51 11.8598 149.845 11.5284 151.39 11.5284C152.934 11.5284 154.267 11.8598 155.387 12.5227C156.514 13.179 157.382 14.1004 157.992 15.2869C158.602 16.4669 158.907 17.8456 158.907 19.4233C158.907 20.9877 158.602 22.3632 157.992 23.5497C157.382 24.7296 156.514 25.651 155.387 26.3139C154.267 26.9702 152.934 27.2983 151.39 27.2983ZM151.41 24.017C152.113 24.017 152.699 23.8182 153.17 23.4205C153.64 23.0161 153.995 22.4659 154.234 21.7699C154.479 21.0739 154.602 20.2817 154.602 19.3935C154.602 18.5052 154.479 17.7131 154.234 17.017C153.995 16.321 153.64 15.7708 153.17 15.3665C152.699 14.9621 152.113 14.7599 151.41 14.7599C150.701 14.7599 150.104 14.9621 149.62 15.3665C149.143 15.7708 148.782 16.321 148.536 17.017C148.298 17.7131 148.178 18.5052 148.178 19.3935C148.178 20.2817 148.298 21.0739 148.536 21.7699C148.782 22.4659 149.143 23.0161 149.62 23.4205C150.104 23.8182 150.701 24.017 151.41 24.017ZM164.291 27L160.135 11.7273H164.421L166.787 21.9886H166.926L169.392 11.7273H173.598L176.104 21.929H176.233L178.56 11.7273H182.835L178.689 27H174.205L171.58 17.3949H171.391L168.766 27H164.291Z" fill="#2563EB"/>
<defs>
<linearGradient id="paint0_linear_81_10" x1="-nan" y1="-nan" x2="-nan" y2="-nan" gradientUnits="userSpaceOnUse">
<stop stop-color="#3B82F6"/>
<stop offset="1" stop-color="#2563EB"/>
</linearGradient>
<linearGradient id="paint1_linear_81_10" x1="42" y1="11" x2="749" y2="11" gradientUnits="userSpaceOnUse">
<stop stop-color="#3B82F6"/>
<stop offset="1" stop-color="#2563EB"/>
</linearGradient>
</defs>
</svg>
